Coordinates
version=1
nRows=24
nColumns=24
inDegrees=yes

Units are S.I. units (second, meters, Newtons, ...)
Angles are in degrees.

endheader
time	pelvis_tilt	pelvis_list	pelvis_rotation	pelvis_tx	pelvis_ty	pelvis_tz	hip_flexion_r	hip_adduction_r	hip_rotation_r	knee_angle_r	ankle_angle_r	subtalar_angle_r	mtp_angle_r	hip_flexion_l	hip_adduction_l	hip_rotation_l	knee_angle_l	ankle_angle_l	subtalar_angle_l	mtp_angle_l	lumbar_extension	lumbar_bending	lumbar_rotation
      0.74550000	     -0.22853388	      2.29623753	      0.60512503	     -0.39164180	      1.06902347	      0.33618097	     12.01757210	      0.85010347	     -1.41037332	    -20.23606821	     11.42410171	     -3.06993547	      7.81889724	     18.56116629	     -3.24168823	     -4.54928209	    -71.34835447	     12.23912026	     12.19527654	      4.05134667	    -16.20386407	      3.38552945	      2.02074595
      0.74966667	     -0.19979579	      2.38146513	      0.44068195	     -0.38654126	      1.06992211	      0.33675290	     11.54333980	      0.80555488	     -1.28551571	    -19.91793968	     11.50053260	     -3.00014404	      7.81385548	     19.00486110	     -3.22343978	     -4.70671963	    -70.88788313	     12.47055717	     12.43685814	      4.06427124	    -16.21413508	      3.23333949	      2.17282936
      0.75383333	     -0.16124379	      2.46575800	      0.27072345	     -0.38145290	      1.07081293	      0.33733334	     11.05680630	      0.76207511	     -1.15025988	    -19.59241058	     11.57142395	     -2.93779951	      7.80876906	     19.42572802	     -3.21163618	     -4.87670727	    -70.38643203	     12.68352459	     12.64270633	      4.07685750	    -16.23777797	      3.08047005	      2.32566469
      0.75800000	     -0.11202326	      2.55599216	      0.09469805	     -0.37639915	      1.07168536	      0.33792356	     10.56334521	      0.71217102	     -0.99540035	    -19.27054867	     11.64790885	     -2.89418704	      7.80239073	     19.82375069	     -3.19322473	     -5.04625165	    -69.84258021	     12.86952485	     12.82585703	      4.09024752	    -16.28817563	      2.92645574	      2.51044975
      0.76216667	     -0.09259046	      2.63697708	     -0.07401975	     -0.37132134	      1.07246922	      0.33852052	     10.09619876	      0.67191872	     -0.84385664	    -18.93848695	     11.72121984	     -2.87952666	      7.78995491	     20.24717058	     -3.19069282	     -5.21855892	    -69.27354558	     13.02543819	     12.95718189	      4.10813599	    -16.28701554	      2.75963411	      2.75368760
      0.76633333	     -0.07461313	      2.73410365	     -0.26074807	     -0.36625996	      1.07321372	      0.33912674	      9.64554072	      0.61102728	     -0.68680167	    -18.63140980	     11.78148637	     -2.81417439	      7.78537873	     20.65451135	     -3.17482895	     -5.41334540	    -68.66106699	     13.17793804	     13.04086330	      4.11770554	    -16.28567515	      2.59041665	      2.83016630
      0.77050000	     -0.02490635	      2.80944305	     -0.43186962	     -0.36121965	      1.07397900	      0.33971623	      9.14617106	      0.57341757	     -0.52143788	    -18.29412225	     11.85486464	     -2.82164659	      7.77165502	     21.02206220	     -3.17820244	     -5.58321713	    -68.01896393	     13.30114145	     13.12263256	      4.13431499	    -16.33135802	      2.43813509	      3.07223247
      0.77466667	     -0.02372171	      2.89702539	     -0.61034001	     -0.35617371	      1.07461890	      0.34031286	      8.71320231	      0.51854245	     -0.36486006	    -17.98240055	     11.91603254	     -2.75942339	      7.76759241	     21.43069883	     -3.17271897	     -5.76890596	    -67.34726733	     13.41789564	     13.14311940	      4.14079818	    -16.30963444	      2.27646645	      3.13234364
      0.77883333	      0.00440832	      2.98609026	     -0.78780761	     -0.35114646	      1.07527179	      0.34090017	      8.24692101	      0.46204227	     -0.18612867	    -17.66139748	     11.99247168	     -2.78510364	      7.75087407	     21.79524762	     -3.15989323	     -5.94385496	    -66.63110576	     13.49555165	     13.14417084	      4.15561324	    -16.32990027	      2.11094586	      3.38755709
      0.78300000	     -0.00238912	      3.07185693	     -0.96070858	     -0.34612147	      1.07581939	      0.34148157	      7.82593655	      0.40400826	     -0.03363538	    -17.35328349	     12.05971100	     -2.72693406	      7.74589578	     22.19236304	     -3.15470610	     -6.12216607	    -65.89651347	     13.57450279	     13.11010820	      4.16045589	    -16.30244541	      1.95276552	      3.44082078
      0.78716667	      0.02494653	      3.17530178	     -1.13769604	     -0.34111147	      1.07640620	      0.34203471	      7.37334757	      0.32187788	      0.12694108	    -17.05592929	     12.14720698	     -2.72203360	      7.73532799	     22.52979855	     -3.11868244	     -6.29426673	    -65.10442853	     13.61448121	     13.03236673	      4.16672142	    -16.31320583	      1.79766093	      3.59691592
      0.79133333	      0.03129326	      3.24992168	     -1.30358925	     -0.33611597	      1.07688111	      0.34258324	      6.94035945	      0.27004826	      0.28322204	    -16.75090865	     12.22175349	     -2.70045490	      7.72563784	     22.89285300	     -3.11749591	     -6.45412044	    -64.31254010	     13.65385301	     12.93248174	      4.17137233	    -16.31044012	      1.64716514	      3.72203389
      0.79550000	      0.03545047	      3.33865198	     -1.46107210	     -0.33112035	      1.07733875	      0.34310571	      6.51148183	      0.19818345	      0.42489343	    -16.44942817	     12.30506980	     -2.68463443	      7.71455214	     23.24161817	     -3.09010652	     -6.59950394	    -63.47513010	     13.66628033	     12.79396148	      4.17471236	    -16.30172145	      1.49224698	      3.85283170
      0.79966667	      0.03703876	      3.41285412	     -1.61174014	     -0.32613910	      1.07774222	      0.34360070	      6.08613925	      0.13900242	      0.56048431	    -16.14928233	     12.38926769	     -2.66175299	      7.70267922	     23.58697467	     -3.07380990	     -6.73229199	    -62.61900385	     13.66644844	     12.63004002	      4.17675538	    -16.29491136	      1.35262260	      3.97195883
      0.80383333	      0.03740214	      3.49667940	     -1.75778044	     -0.32117015	      1.07810615	      0.34407647	      5.66686262	      0.06476157	      0.68840371	    -15.85691328	     12.48033026	     -2.63497557	      7.69058693	     23.92022901	     -3.03959433	     -6.85434760	    -61.72772899	     13.64524600	     12.43190317	      4.17703561	    -16.28589647	      1.20658800	      4.07752029
      0.80800000	      0.04491245	      3.56764306	     -1.89702578	     -0.31622449	      1.07842700	      0.34452376	      5.24210707	      0.00097982	      0.80553855	    -15.56790853	     12.57512229	     -2.60543204	      7.67795057	     24.23859135	     -3.01250142	     -6.96131566	    -60.81652282	     13.61183183	     12.21147975	      4.17591494	    -16.29140713	      1.07827554	      4.17761924
      0.81216667	      0.02078890	      3.63159382	     -2.02695014	     -0.31127286	      1.07864819	      0.34494007	      4.85473577	     -0.05763063	      0.91522562	    -15.28756444	     12.67218647	     -2.57491369	      7.66584723	     24.58264251	     -2.98663954	     -7.05094040	    -59.88531183	     13.56587000	     11.97636591	      4.17293237	    -16.26168724	      0.96151410	      4.26137249
      0.81633333	      0.01279129	      3.69312040	     -2.15077402	     -0.30634322	      1.07885863	      0.34532929	      4.45161425	     -0.11765566	      1.01559886	    -15.00873248	     12.77225938	     -2.54040347	      7.65366155	     24.89799601	     -2.95370648	     -7.12527429	    -58.92644596	     13.50449083	     11.71524822	      4.16762506	    -16.25402667	      0.84916331	      4.33490165
      0.82050000	      0.01871925	      3.75204945	     -2.26675675	     -0.30142389	      1.07905693	      0.34568548	      4.03432455	     -0.17965398	      1.10084873	    -14.73251609	     12.87702728	     -2.50113564	      7.64075429	     25.18552676	     -2.91293846	     -7.18224296	    -57.93826472	     13.42639436	     11.43452667	      4.16041716	    -16.26646604	      0.74463783	      4.39976322
      0.82466667	      0.00348226	      3.80484449	     -2.37576693	     -0.29651359	      1.07916944	      0.34601103	      3.64424804	     -0.23696406	      1.17909686	    -14.46423056	     12.98656183	     -2.45735564	      7.62727083	     25.48751817	     -2.87183010	     -7.22275720	    -56.93158467	     13.33963949	     11.14492375	      4.15141196	    -16.25756689	      0.65090176	      4.45488569
      0.82883333	      0.00528771	      3.85326547	     -2.47664632	     -0.29162257	      1.07927039	      0.34630244	      3.23718505	     -0.29412999	      1.24352994	    -14.19867917	     13.09930904	     -2.40696586	      7.61377426	     25.76007423	     -2.82429846	     -7.24413480	    -55.90085818	     13.24042160	     10.84013022	      4.13999342	    -16.27289325	      0.56585312	      4.49757466
      0.83300000	     -0.01482036	      3.87924930	     -2.56678264	     -0.28673610	      1.07927785	      0.34655780	      2.85356334	     -0.32751881	      1.30316967	    -13.93450429	     13.21210151	     -2.36005384	      7.59984262	     26.05143898	     -2.79409685	     -7.24381068	    -54.86220496	     13.13955886	     10.53587852	      4.12679288	    -16.26619146	      0.51254909	      4.53061870
      0.83716667	     -0.03469079	      3.91998972	     -2.65543209	     -0.28185040	      1.07926293	      0.34679662	      2.47475097	     -0.38055369	      1.35348237	    -13.67961348	     13.32863486	     -2.30810669	      7.58647372	     26.32424350	     -2.74015317	     -7.23483831	    -53.78743826	     13.02328392	     10.22637483	      4.11152938	    -16.26641593	      0.44157980	      4.54736536
      0.84133333	     -0.05865108	      3.93430781	     -2.73184969	     -0.27699057	      1.07917507	      0.34698912	      2.10223399	     -0.40644721	      1.39262758	    -13.43081473	     13.45077346	     -2.25018262	      7.57217042	     26.59852420	     -2.70395627	     -7.19705536	    -52.70784807	     12.90950355	      9.91746232	      4.09425386	    -16.26079374	      0.40966491	      4.56085630
